<?xml version="1.0" encoding="utf-8"?>
<!-- Generator: Adobe Illustrator 26.0.0, SVG Export Plug-In . SVG Version: 6.00 Build 0)  -->
<svg version="1.1" id="图层_1" xmlns="http://www.w3.org/2000/svg" xmlns:xlink="http://www.w3.org/1999/xlink" x="0px" y="0px"
	 viewBox="0 0 340 340" style="enable-background:new 0 0 340 340;" xml:space="preserve">
<style type="text/css">
	.st0{display:none;}
	.st1{display:inline;opacity:0.39;}
	.st2{fill:#00E8FF;}
	.st3{display:inline;}
	.st4{fill:#00A4FF;}
	.st5{opacity:0.67;}
	.st6{fill:#5AFFEF;}
	.st7{display:inline;fill:#80D2FF;}
	.st8{opacity:0.39;}
	.st9{fill:#1DFFAD;}
	.st10{fill:#21F99C;}
	.st11{fill:#AEFFCF;}
	.st12{display:none;fill:none;stroke:#69CDFF;stroke-width:0.5;stroke-miterlimit:10;}
	.st13{fill:none;stroke:#43FFC0;stroke-width:2;stroke-miterlimit:10;}
	.st14{display:inline;opacity:0.7;fill:url(#SVGID_1_);enable-background:new    ;}
	.st15{display:inline;fill:none;stroke:#69CDFF;stroke-width:0.5;stroke-miterlimit:10;}
	.st16{fill:#FFFFFF;}
	.st17{opacity:0.75;}
	.st18{fill:#40DBFF;}
	.st19{opacity:0.7;fill:url(#SVGID_00000124863440866984469380000003405350355951833245_);enable-background:new    ;}
	.st20{fill:#3EFFB5;}
</style>
<g class="st0">
	<g class="st1">
		<g>
			<circle class="st2" cx="-156.1" cy="-154.9" r="1"/>
		</g>
	</g>
	<g class="st3">
		<g>
			<g>
				<circle class="st4" cx="-156.1" cy="-154.9" r="0.7"/>
			</g>
			<g class="st5">
				<circle class="st6" cx="-156.1" cy="-154.9" r="0.7"/>
			</g>
		</g>
	</g>
	<path class="st7" d="M-156.1-153.1c-1,0-1.8-0.8-1.8-1.8c0-0.8,0.5-1.4,1.2-1.7c0.1,0,0.1,0,0.1,0.1s0,0.1-0.1,0.1
		c-0.6,0.2-1,0.8-1,1.5c0,0.9,0.7,1.6,1.6,1.6c0.9,0,1.6-0.7,1.6-1.6c0-0.7-0.4-1.2-1-1.5c-0.1,0-0.1-0.1-0.1-0.1s0.1-0.1,0.2-0.1
		c0.7,0.3,1.2,1,1.2,1.7C-154.2-153.9-155.1-153.1-156.1-153.1z"/>
</g>
<g>
	<g class="st8">
		<g>
			<ellipse class="st9" cx="170.7" cy="313.7" rx="11.4" ry="11.3"/>
		</g>
	</g>
	<g>
		<g>
			<g>
				<ellipse class="st10" cx="170.7" cy="313.7" rx="8" ry="7.9"/>
			</g>
			<g class="st5">
				<ellipse class="st6" cx="170.7" cy="313.7" rx="8" ry="7.9"/>
			</g>
		</g>
	</g>
	<path class="st11" d="M170.7,334.8c-11.7,0-21.2-9.4-21.2-20.9c0-8.6,5.4-16.5,13.6-19.6c0.7-0.3,1.5,0.1,1.8,0.8
		c0.3,0.7-0.1,1.5-0.8,1.8c-7.1,2.7-11.8,9.5-11.8,17c0,10.1,8.3,18.2,18.3,18.2c10.2,0,18.3-8.2,18.3-18.2c0-7.5-4.7-14.3-11.8-17
		c-0.7-0.3-1.1-1.1-0.8-1.8c0.3-0.7,1.1-1.1,1.8-0.8c8.2,3.1,13.6,10.9,13.6,19.6C191.9,325.3,182.4,334.8,170.7,334.8z"/>
</g>
<line class="st12" x1="-156.1" y1="-156" x2="-156.1" y2="-173.3"/>
<line class="st13" x1="170.7" y1="306.2" x2="170.7" y2="134.2"/>
<g class="st0">
	
		<radialGradient id="SVGID_1_" cx="-156.06" cy="-485.73" r="6.4951" gradientTransform="matrix(1 0 0 1 0 306)" gradientUnits="userSpaceOnUse">
		<stop  offset="0" style="stop-color:#10336F"/>
		<stop  offset="0.3641" style="stop-color:#103572"/>
		<stop  offset="0.9996" style="stop-color:#1A6EC9"/>
	</radialGradient>
	<circle class="st14" cx="-156.1" cy="-179.7" r="6.5"/>
	<circle class="st15" cx="-156.1" cy="-179.7" r="6.5"/>
	<g class="st3">
		<g>
			<path class="st16" d="M-159.3-179.3c0,0-0.1,0-0.1,0.1l-0.1,0.1v2.3c0,0.1,0.1,0.2,0.2,0.2h0.3c0.3,0,0.5-0.2,0.5-0.5v-0.2h1.9
				c0.3,0,0.7-0.2,0.8-0.5c0-0.1,0-0.1,0-0.2c0-0.1-0.1-0.1-0.2,0c-0.1,0.1-0.3,0.1-0.4,0.1c-0.4,0-0.7-0.2-0.9-0.6
				c0-0.1-0.1-0.1-0.1-0.1h-1v-0.2c0-0.3-0.2-0.5-0.5-0.5L-159.3-179.3L-159.3-179.3z M-159.4-180.9c0,0.1-0.1,0.2-0.1,0.3v0.1
				c0,0.2,0.1,0.4,0.3,0.4l2.1,1c0,0.1,0,0.1,0,0.2c0,0.4,0.3,0.7,0.7,0.7c0.2,0,0.5-0.1,0.6-0.3l1,0.5h0.1h0.1l1.4-1.1l0.9,0.4
				c0.1,0,0.1,0,0.2,0l0.5-0.4c0.1-0.1,0.2-0.2,0.2-0.3c0,0,0,0,0-0.1v-0.1c0,0,0,0,0-0.1c0-0.2-0.1-0.3-0.3-0.3l-5.4-2.7
				c-0.2-0.1-0.3-0.1-0.5-0.1c-0.4,0-0.8,0.2-1,0.6L-159.4-180.9z M-154.2-178.1l-0.1,0.1c0,0.1,0,0.1,0.1,0.1l1.2,0.7h0.1
				c0,0,0,0,0.1,0c0,0,0.1,0,0.1-0.1l0.5-1v-0.1c0,0,0-0.1-0.1-0.1l-0.7-0.3c-0.1,0-0.1,0-0.2,0L-154.2-178.1L-154.2-178.1z"/>
		</g>
		<g class="st17">
			<path class="st18" d="M-159.3-179.3c0,0-0.1,0-0.1,0.1l-0.1,0.1v2.3c0,0.1,0.1,0.2,0.2,0.2h0.3c0.3,0,0.5-0.2,0.5-0.5v-0.2h1.9
				c0.3,0,0.7-0.2,0.8-0.5c0-0.1,0-0.1,0-0.2c0-0.1-0.1-0.1-0.2,0c-0.1,0.1-0.3,0.1-0.4,0.1c-0.4,0-0.7-0.2-0.9-0.6
				c0-0.1-0.1-0.1-0.1-0.1h-1v-0.2c0-0.3-0.2-0.5-0.5-0.5L-159.3-179.3L-159.3-179.3z M-159.4-180.9c0,0.1-0.1,0.2-0.1,0.3v0.1
				c0,0.2,0.1,0.4,0.3,0.4l2.1,1c0,0.1,0,0.1,0,0.2c0,0.4,0.3,0.7,0.7,0.7c0.2,0,0.5-0.1,0.6-0.3l1,0.5h0.1h0.1l1.4-1.1l0.9,0.4
				c0.1,0,0.1,0,0.2,0l0.5-0.4c0.1-0.1,0.2-0.2,0.2-0.3c0,0,0,0,0-0.1v-0.1c0,0,0,0,0-0.1c0-0.2-0.1-0.3-0.3-0.3l-5.4-2.7
				c-0.2-0.1-0.3-0.1-0.5-0.1c-0.4,0-0.8,0.2-1,0.6L-159.4-180.9z M-154.2-178.1l-0.1,0.1c0,0.1,0,0.1,0.1,0.1l1.2,0.7h0.1
				c0,0,0,0,0.1,0c0,0,0.1,0,0.1-0.1l0.5-1v-0.1c0,0,0-0.1-0.1-0.1l-0.7-0.3c-0.1,0-0.1,0-0.2,0L-154.2-178.1L-154.2-178.1z"/>
		</g>
	</g>
</g>
<g>
	
		<radialGradient id="SVGID_00000167390784868242570450000011133597834374850978_" cx="307.2929" cy="-8.1174" r="6.4521" gradientTransform="matrix(10.0775 0 0 10.0091 -2926.0447 150.5477)" gradientUnits="userSpaceOnUse">
		<stop  offset="0" style="stop-color:#00AA81"/>
		<stop  offset="0.3641" style="stop-color:#009460"/>
		<stop  offset="0.9996" style="stop-color:#6AFFBA"/>
	</radialGradient>
	
		<ellipse style="opacity:0.7;fill:url(#SVGID_00000167390784868242570450000011133597834374850978_);enable-background:new    ;" cx="170.7" cy="69.3" rx="65" ry="64.6"/>
	<ellipse class="st13" cx="170.7" cy="70.3" rx="65" ry="64.6"/>
	<g>
		<g>
			<path class="st16" d="M192.2,84.9c0.1,0.2,0.2,0.3,0.3,0.5l4.4,8.8c1.2,2.4,1.1,5.3-0.3,7.6c-1.4,2.3-3.9,3.7-6.7,3.7h-38.2
				c-2.7,0-5.2-1.4-6.7-3.7c-1.5-2.3-1.5-5.2-0.3-7.6l4.4-8.8c0.1-0.2,0.2-0.3,0.3-0.5c5.3,4.5,12.1,7,19.1,7h4.5
				C180.3,91.9,187.1,89.2,192.2,84.9L192.2,84.9z M170.7,33.2c15,0,27.3,12.1,27.3,27.1c0,14.9-12.2,27.1-27.3,27.1
				c-15,0-27.3-12.1-27.3-27.1C143.5,45.4,155.7,33.2,170.7,33.2L170.7,33.2z M170.7,76.1c4,0,7.8-2.1,9.9-5.6c2-3.5,2-7.8,0-11.3
				s-5.7-5.6-9.9-5.6c-6.2,0-11.4,5-11.4,11.3C159.3,71.2,164.5,76.1,170.7,76.1L170.7,76.1z M171,69.3c-1.6,0-3.1-0.9-3.9-2.3
				c-0.8-1.4-0.8-3.1,0-4.5s2.3-2.3,3.9-2.3c2.5,0,4.5,2,4.5,4.5C175.6,67.3,173.6,69.3,171,69.3L171,69.3z"/>
		</g>
		<g class="st17">
			<path class="st20" d="M192.2,84.9c0.1,0.2,0.2,0.3,0.3,0.5l4.4,8.8c1.2,2.4,1.1,5.3-0.3,7.6c-1.4,2.3-3.9,3.7-6.7,3.7h-38.2
				c-2.7,0-5.2-1.4-6.7-3.7c-1.5-2.3-1.5-5.2-0.3-7.6l4.4-8.8c0.1-0.2,0.2-0.3,0.3-0.5c5.3,4.5,12.1,7,19.1,7h4.5
				C180.3,91.9,187.1,89.2,192.2,84.9L192.2,84.9z M170.7,33.2c15,0,27.3,12.1,27.3,27.1c0,14.9-12.2,27.1-27.3,27.1
				c-15,0-27.3-12.1-27.3-27.1C143.5,45.4,155.7,33.2,170.7,33.2L170.7,33.2z M170.7,76.1c4,0,7.8-2.1,9.9-5.6c2-3.5,2-7.8,0-11.3
				s-5.7-5.6-9.9-5.6c-6.2,0-11.4,5-11.4,11.3C159.3,71.2,164.5,76.1,170.7,76.1L170.7,76.1z M171,69.3c-1.6,0-3.1-0.9-3.9-2.3
				c-0.8-1.4-0.8-3.1,0-4.5s2.3-2.3,3.9-2.3c2.5,0,4.5,2,4.5,4.5C175.6,67.3,173.6,69.3,171,69.3L171,69.3z"/>
		</g>
	</g>
</g>
</svg>
