<?xml version="1.0" encoding="utf-8"?>
<!-- Generator: Adobe Illustrator 26.0.0, SVG Export Plug-In . SVG Version: 6.00 Build 0)  -->
<svg version="1.1" id="图层_1" xmlns="http://www.w3.org/2000/svg" xmlns:xlink="http://www.w3.org/1999/xlink" x="0px" y="0px"
	 viewBox="0 0 340 340" style="enable-background:new 0 0 340 340;" xml:space="preserve">
<style type="text/css">
	.st0{opacity:0.39;}
	.st1{fill:#00E8FF;}
	.st2{fill:#00A4FF;}
	.st3{opacity:0.67;}
	.st4{fill:#5AFFEF;}
	.st5{fill:#80D2FF;}
	.st6{display:none;}
	.st7{display:inline;opacity:0.39;}
	.st8{fill:#1DFFAD;}
	.st9{display:inline;}
	.st10{fill:#21F99C;}
	.st11{display:inline;fill:#AEFFCF;}
	.st12{fill:none;stroke:#69CDFF;stroke-width:0.5;stroke-miterlimit:10;}
	.st13{display:none;fill:none;stroke:#43FFC0;stroke-width:0.5;stroke-miterlimit:10;}
	.st14{opacity:0.7;fill:url(#SVGID_1_);enable-background:new    ;}
	.st15{fill:#FFFFFF;}
	.st16{opacity:0.75;}
	.st17{fill:#40DBFF;}
	
		.st18{display:inline;opacity:0.7;fill:url(#SVGID_00000122720281442509162780000003891673587331610547_);enable-background:new    ;}
	.st19{display:inline;fill:none;stroke:#43FFC0;stroke-width:0.5;stroke-miterlimit:10;}
	.st20{fill:#3EFFB5;}
</style>
<g>
	<g class="st0">
		<g>
			<ellipse class="st1" cx="170.9" cy="317.2" rx="9.8" ry="9.8"/>
		</g>
	</g>
	<g>
		<g>
			<g>
				<ellipse class="st2" cx="170.9" cy="317.2" rx="6.9" ry="6.9"/>
			</g>
			<g class="st3">
				<ellipse class="st4" cx="170.9" cy="317.2" rx="6.9" ry="6.9"/>
			</g>
		</g>
	</g>
	<path class="st5" d="M170.9,335.4c-10,0-18.2-8.2-18.2-18.1c0-7.5,4.7-14.3,11.7-16.9c0.6-0.2,1.3,0.1,1.5,0.7
		c0.2,0.6-0.1,1.3-0.7,1.5c-6.1,2.3-10.2,8.3-10.2,14.8c0,8.7,7.1,15.7,15.8,15.7s15.8-7.1,15.8-15.7c0-6.5-4.1-12.5-10.2-14.8
		c-0.6-0.2-0.9-0.9-0.7-1.5c0.2-0.6,0.9-0.9,1.5-0.7c7,2.7,11.7,9.5,11.7,16.9C189.1,327.2,181,335.4,170.9,335.4z"/>
</g>
<g class="st6">
	<g class="st7">
		<g>
			<circle class="st8" cx="169.3" cy="184.6" r="1.1"/>
		</g>
	</g>
	<g class="st9">
		<g>
			<g>
				<circle class="st10" cx="169.3" cy="184.6" r="0.8"/>
			</g>
			<g class="st3">
				<circle class="st4" cx="169.3" cy="184.6" r="0.8"/>
			</g>
		</g>
	</g>
	<path class="st11" d="M169.3,186.7c-1.2,0-2.1-0.9-2.1-2.1c0-0.9,0.5-1.6,1.3-2c0.1,0,0.2,0,0.2,0.1c0,0.1,0,0.1-0.1,0.2
		c-0.7,0.3-1.2,1-1.2,1.7c0,1,0.8,1.8,1.8,1.8c1,0,1.8-0.8,1.8-1.8c0-0.8-0.5-1.4-1.2-1.7c-0.1,0-0.1-0.1-0.1-0.2s0.1-0.1,0.2-0.1
		c0.8,0.3,1.4,1.1,1.4,2C171.4,185.8,170.5,186.7,169.3,186.7z"/>
</g>
<line class="st12" x1="170.9" y1="306.6" x2="170.9" y2="134.1"/>
<line class="st13" x1="169.3" y1="183.9" x2="169.3" y2="166.7"/>
<g>
	
		<radialGradient id="SVGID_1_" cx="170.94" cy="179.73" r="6.5" gradientTransform="matrix(10 0 0 -9.9674 -1538.46 1861.4973)" gradientUnits="userSpaceOnUse">
		<stop  offset="0" style="stop-color:#10336F"/>
		<stop  offset="0.3641" style="stop-color:#103572"/>
		<stop  offset="0.9996" style="stop-color:#1A6EC9"/>
	</radialGradient>
	<ellipse class="st14" cx="170.9" cy="70.1" rx="65" ry="64.8"/>
	<ellipse class="st12" cx="170.9" cy="70.1" rx="65" ry="64.8"/>
	<g>
		<g>
			<path class="st15" d="M138.7,74.3c-0.4,0-0.9,0.2-1.2,0.5c-0.3,0.3-0.5,0.7-0.5,1.2v23.1c0,0.9,0.8,1.7,1.7,1.7h3.4
				c2.8,0,5-2.2,5-5v-1.7h18.5c3.4,0,6.6-2.1,7.8-5.3c0.2-0.6,0.1-1.3-0.4-1.8c-0.5-0.5-1.2-0.6-1.8-0.3c-1.3,0.5-2.6,0.8-3.9,0.7
				c-3.9,0-7.4-2.2-9.1-5.7c-0.3-0.6-0.9-0.9-1.5-0.9h-9.6v-1.6c0-2.7-2.3-5-5-5H138.7z M137.7,57.9c-0.5,0.8-0.7,1.7-0.8,2.6v0.7
				c0,1.9,1.1,3.7,2.9,4.5l21.1,10c-0.3,0.7-0.4,1.4-0.4,2.1c0,3.6,3,6.6,6.7,6.6c2.4,0,4.6-1.3,5.9-3.4l10.2,4.8
				c0.2,0.1,0.5,0.2,0.7,0.2c0.4,0,0.7-0.1,1-0.3l14.3-10.9l9.1,4.5c0.6,0.3,1.2,0.2,1.8-0.2l5.4-4c1-0.7,1.7-1.8,1.9-3
				c0.1-0.2,0.1-0.3,0.1-0.5v-0.5c0-0.2-0.1-0.5-0.1-0.7c-0.3-1.5-1.3-2.7-2.6-3.4l-53.8-26.4c-1.6-0.7-3.4-1.1-5.2-1.1
				c-4.1,0-7.9,2.1-10,5.5L137.7,57.9z M189.9,86.2c-0.5,0.3-0.8,0.9-0.7,1.4c0,0.6,0.3,1.1,0.8,1.4l11.8,6.6
				c0.3,0.1,0.5,0.2,0.8,0.2c0.2,0,0.3,0,0.5-0.1c0.4-0.1,0.8-0.4,1-0.8l5.1-9.9c0.2-0.4,0.2-0.9,0.1-1.3c-0.1-0.4-0.4-0.8-0.8-1
				l-6.7-3.3c-0.5-0.3-1.2-0.2-1.7,0.1L189.9,86.2L189.9,86.2z"/>
		</g>
		<g class="st16">
			<path class="st17" d="M138.7,74.3c-0.4,0-0.9,0.2-1.2,0.5c-0.3,0.3-0.5,0.7-0.5,1.2v23.1c0,0.9,0.8,1.7,1.7,1.7h3.4
				c2.8,0,5-2.2,5-5v-1.7h18.5c3.4,0,6.6-2.1,7.8-5.3c0.2-0.6,0.1-1.3-0.4-1.8c-0.5-0.5-1.2-0.6-1.8-0.3c-1.3,0.5-2.6,0.8-3.9,0.7
				c-3.9,0-7.4-2.2-9.1-5.7c-0.3-0.6-0.9-0.9-1.5-0.9h-9.6v-1.6c0-2.7-2.3-5-5-5H138.7z M137.7,57.9c-0.5,0.8-0.7,1.7-0.8,2.6v0.7
				c0,1.9,1.1,3.7,2.9,4.5l21.1,10c-0.3,0.7-0.4,1.4-0.4,2.1c0,3.6,3,6.6,6.7,6.6c2.4,0,4.6-1.3,5.9-3.4l10.2,4.8
				c0.2,0.1,0.5,0.2,0.7,0.2c0.4,0,0.7-0.1,1-0.3l14.3-10.9l9.1,4.5c0.6,0.3,1.2,0.2,1.8-0.2l5.4-4c1-0.7,1.7-1.8,1.9-3
				c0.1-0.2,0.1-0.3,0.1-0.5v-0.5c0-0.2-0.1-0.5-0.1-0.7c-0.3-1.5-1.3-2.7-2.6-3.4l-53.8-26.4c-1.6-0.7-3.4-1.1-5.2-1.1
				c-4.1,0-7.9,2.1-10,5.5L137.7,57.9z M189.9,86.2c-0.5,0.3-0.8,0.9-0.7,1.4c0,0.6,0.3,1.1,0.8,1.4l11.8,6.6
				c0.3,0.1,0.5,0.2,0.8,0.2c0.2,0,0.3,0,0.5-0.1c0.4-0.1,0.8-0.4,1-0.8l5.1-9.9c0.2-0.4,0.2-0.9,0.1-1.3c-0.1-0.4-0.4-0.8-0.8-1
				l-6.7-3.3c-0.5-0.3-1.2-0.2-1.7,0.1L189.9,86.2L189.9,86.2z"/>
		</g>
	</g>
</g>
<g class="st6">
	
		<radialGradient id="SVGID_00000047758197752207712890000013843985339208915380_" cx="169.34" cy="179.78" r="6.45" gradientTransform="matrix(1 0 0 -1 0 340)" gradientUnits="userSpaceOnUse">
		<stop  offset="0" style="stop-color:#00AA81"/>
		<stop  offset="0.3641" style="stop-color:#009460"/>
		<stop  offset="0.9996" style="stop-color:#6AFFBA"/>
	</radialGradient>
	
		<circle style="display:inline;opacity:0.7;fill:url(#SVGID_00000047758197752207712890000013843985339208915380_);enable-background:new    ;" cx="169.3" cy="160.2" r="6.5"/>
	<circle class="st19" cx="169.3" cy="160.3" r="6.5"/>
	<g class="st9">
		<g>
			<path class="st15" d="M171.5,161.8C171.5,161.8,171.5,161.8,171.5,161.8l0.5,0.9c0.1,0.2,0.1,0.5,0,0.8s-0.4,0.4-0.7,0.4h-3.8
				c-0.3,0-0.5-0.1-0.7-0.4s-0.2-0.5,0-0.8l0.4-0.9c0,0,0,0,0-0.1c0.5,0.4,1.2,0.7,1.9,0.7h0.4C170.3,162.5,171,162.2,171.5,161.8
				L171.5,161.8z M169.3,156.6c1.5,0,2.7,1.2,2.7,2.7c0,1.5-1.2,2.7-2.7,2.7c-1.5,0-2.7-1.2-2.7-2.7
				C166.6,157.8,167.9,156.6,169.3,156.6L169.3,156.6z M169.3,160.9c0.4,0,0.8-0.2,1-0.6c0.2-0.3,0.2-0.8,0-1.1
				c-0.2-0.4-0.6-0.6-1-0.6c-0.6,0-1.1,0.5-1.1,1.1S168.7,160.9,169.3,160.9L169.3,160.9z M169.4,160.2c-0.2,0-0.3-0.1-0.4-0.2
				s-0.1-0.3,0-0.5s0.2-0.2,0.4-0.2c0.2,0,0.5,0.2,0.5,0.4C169.8,160,169.6,160.2,169.4,160.2L169.4,160.2z"/>
		</g>
		<g class="st16">
			<path class="st20" d="M171.5,161.8C171.5,161.8,171.5,161.8,171.5,161.8l0.5,0.9c0.1,0.2,0.1,0.5,0,0.8s-0.4,0.4-0.7,0.4h-3.8
				c-0.3,0-0.5-0.1-0.7-0.4s-0.2-0.5,0-0.8l0.4-0.9c0,0,0,0,0-0.1c0.5,0.4,1.2,0.7,1.9,0.7h0.4C170.3,162.5,171,162.2,171.5,161.8
				L171.5,161.8z M169.3,156.6c1.5,0,2.7,1.2,2.7,2.7c0,1.5-1.2,2.7-2.7,2.7c-1.5,0-2.7-1.2-2.7-2.7
				C166.6,157.8,167.9,156.6,169.3,156.6L169.3,156.6z M169.3,160.9c0.4,0,0.8-0.2,1-0.6c0.2-0.3,0.2-0.8,0-1.1
				c-0.2-0.4-0.6-0.6-1-0.6c-0.6,0-1.1,0.5-1.1,1.1S168.7,160.9,169.3,160.9L169.3,160.9z M169.4,160.2c-0.2,0-0.3-0.1-0.4-0.2
				s-0.1-0.3,0-0.5s0.2-0.2,0.4-0.2c0.2,0,0.5,0.2,0.5,0.4C169.8,160,169.6,160.2,169.4,160.2L169.4,160.2z"/>
		</g>
	</g>
</g>
</svg>
